<?xml version="1.0" encoding="iso-8859-1"?>
<!-- Generator: Adobe Illustrator 13.0.2, SVG Export Plug-In . SVG Version: 6.00 Build 14948)  -->
<!DOCTYPE svg PUBLIC "-//W3C//DTD SVG 1.1//EN" "http://www.w3.org/Graphics/SVG/1.1/DTD/svg11.dtd">
<svg version="1.1" id="Layer_1" xmlns="http://www.w3.org/2000/svg" xmlns:xlink="http://www.w3.org/1999/xlink" x="0px" y="0px"
	 width="123.547px" height="123.539px" viewBox="-0.258 -0.548 123.547 123.539"
	 style="enable-background:new -0.258 -0.548 123.547 123.539;" xml:space="preserve">
<g>
	<path style="fill:#231F20;" d="M90.625,107.004c-5.172,0-9.703-4.25-9.703-9.102V61.762c0-1.648-1.344-2.992-2.992-2.992h-7.188
		l-0.039,47.992l-38.07-0.633V23.98c0-4.289,3.5-7.781,7.797-7.781h22.477c4.297,0,7.797,3.492,7.797,7.781c0,0,0,0.336,0,0.93
		c0,5.031-0.023,28.734-0.562,28.766c0.039,0,7.703,0,7.703,0c4.406,0,7.984,3.578,7.984,7.984l-0.047,36.242
		c0,2.391,2.602,4.242,4.844,4.242c2.422,0,5.492-2,5.352-5.359l-3.836-20.68l-0.852-7.008l0.609-20.438l-1.711-0.023
		c-3.812,0-6.898-3.078-6.898-6.875l0.188-10.695c0,0-6.336-6.289-6.336-7.172c0,0,2.438-2.43,3.32-2.43l12.766,12.703
		c2,2.016,2.969,4.414,2.969,7.367v27.562c0,0,0.789,5.969,0.789,6.016c0,0,3.906,21.586,3.992,22.789
		C100.977,103.121,95.508,107.004,90.625,107.004z M109.086-0.777H15.062c-8.148,0-14.766,6.617-14.766,14.773v94.008
		c0,8.156,6.617,14.773,14.766,14.773h94.023c8.148,0,14.766-6.617,14.766-14.773V13.996C123.852,5.84,117.234-0.777,109.086-0.777z
		"/>
	<path style="fill:#FFFFFF;" d="M15.062,1.723c-6.766,0-12.266,5.508-12.266,12.273v94.008c0,6.773,5.5,12.281,12.266,12.281h94.023
		c6.773,0,12.266-5.508,12.266-12.281V13.996c0-6.766-5.492-12.273-12.266-12.273H15.062z"/>
	<path style="fill:#231F20;" d="M65.055,42.934c0,1.195-0.945,2.125-2.148,2.125H40.43c-1.211,0-2.148-0.93-2.148-2.125V23.98
		c0-1.195,0.938-2.125,2.148-2.125h22.477c1.203,0,2.148,0.93,2.148,2.125V42.934z M91.258,45.355
		c-2.844-0.625-3.875-2.086-3.875-3.43v-4.898c0,0,1.891,0.422,2.344,0.539c0.922,0.242,1.508,1.656,1.531,2.891
		C91.289,41.691,91.258,45.355,91.258,45.355z M96.984,75.113c0-0.047-0.789-6.016-0.789-6.016V41.535
		c0-2.953-0.969-5.352-2.969-7.367L80.461,21.465c-0.883,0-3.32,2.43-3.32,2.43c0,0.883,6.336,7.172,6.336,7.172l-0.188,10.695
		c0,3.797,3.086,6.875,6.898,6.875l1.711,0.023l-0.609,20.438l0.852,7.008l3.836,20.68c0.141,3.359-2.93,5.359-5.352,5.359
		c-2.242,0-4.844-1.852-4.844-4.242l0.047-36.242c0-4.406-3.578-7.984-7.984-7.984c0,0-7.664,0-7.703,0
		c0.539-0.031,0.562-23.734,0.562-28.766c0-0.594,0-0.93,0-0.93c0-4.289-3.5-7.781-7.797-7.781H40.43
		c-4.297,0-7.797,3.492-7.797,7.781v82.148l38.07,0.633l0.039-47.992h7.188c1.648,0,2.992,1.344,2.992,2.992v36.141
		c0,4.852,4.531,9.102,9.703,9.102c4.883,0,10.352-3.883,10.352-9.102C100.891,96.699,96.984,75.113,96.984,75.113z"/>
</g>
</svg>
