    /* XPM */
    static char * 1206572314532451960johnny_automatic_NPS_map_pictographs_part_31_xpm[] = {
    "128 128 17 1",
    " 	c None",
    ".	c #231F1E",
    "+	c #302C2B",
    "@	c #383433",
    "#	c #4C4847",
    "$	c #5A5554",
    "%	c #6C6766",
    "&	c #787372",
    "*	c #898482",
    "=	c #999392",
    "-	c #AAA4A3",
    ";	c #B8B2B1",
    ">	c #CEC9C8",
    ",	c #DCDCDA",
    "'	c #E8E7E5",
    ")	c #F4F6F3",
    "!	c #FEFFFC",
    "           ...........................................................................................................          ",
    "         ...............................................................................................................        ",
    "       .....@&=-;;;;;;;;;;;;;;;;;;;;;;;;;;;;;;;;;;;;;;;;;;;;;;;;;;;;;;;;;;;;;;;;;;;;;;;;;;;;;;;;;;;;;;;;;;;;;;;;;;=&#.....      ",
    "      ....&,!!!!!!!!!!!!!!!!!!!!!!!!!!!!!!!!!!!!!!!!!!!!!!!!!!!!!!!!!!!!!!!!!!!!!!!!!!!!!!!!!!!!!!!!!!!!!!!!!!!!!!!!!'*....     ",
    "     ...@;!!!!!!!!!!!!!!!!!!!!!!!!!!!!!!!!!!!!!!!!!!!!!!!!!!!!!!!!!!!!!!!!!!!!!!!!!!!!!!!!!!!!!!!!!!!!!!!!!!!!!!!!!!!!!>#...    ",
    "    ...%'!!!!!!!!!!!!!!!!!!!!!!!!!!!!!!!!!!!!!!!!!!!!!!!!!!!!!!!!!!!!!!!!!!!!!!!!!!!!!!!!!!!!!!!!!!!!!!!!!!!!!!!!!!!!!!!)*...   ",
    "   ...&!!!!!!!!!!!!!!!!!!!!!!!!!!!!!!!!!!!!!!!!!!!!!!!!!!!!!!!!!!!!!!!!!!!!!!!!!!!!!!!!!!!!!!!!!!!!!!!!!!!!!!!!!!!!!!!!!!!=...  ",
    "   ..@)!!!!!!!!!!!!!!!!!!!!!!!!!!!!!!!!!!!!!!!!!!!!!!!!!!!!!!!!!!!!!!!!!!!!!!!!!!!!!!!!!!!!!!!!!!!!!!!!!!!!!!!!!!!!!!!!!!!!$... ",
    "  ...>!!!!!!!!!!!!!!!!!!!!!!!!!!!!!!!!!!!!!!!!!!!!!!!!!!!!!!!!!!!!!!!!!!!!!!!!!!!!!!!!!!!!!!!!!!!!!!!!!!!!!!!!!!!!!!!!!!!!!,+.. ",
    "  ..*!!!!!!!!!!!!!!!!!!!!!!!!!!!!!!!!!!!!!!!!!!!!!!!!!!!!!!!!!!!!!!!!!!!!!!!!!!!!!!!!!!!!!!!!!!!!!!!!!!!!!!!!!!!!!!!!!!!!!!!-.. ",
    " ...)!!!!!!!!!!!!!!!!!!!!!!!!!!!!!!!!!!!!!!!!!!!!!!!!!!!!!!!!!!!!!!!!!!!!!!!!!!!!!!!!!!!!!!!!!!!!!!!!!!!!!!!!!!!!!!!!!!!!!!!!@..",
    " ..$!!!!!!!!!!!!!!!!!!!!!!!!!!!!!!!!!!!!!!!!!!!!!!!!!!!!!!!!!!!!!!!!!!!!!!!!!!!!!!!!!!!!!!!!!!!!!!!!!!!!!!!!!!!!!!!!!!!!!!!!!&..",
    " ..=!!!!!!!!!!!!!!!!!!!!!!!!!!!!!!!!!!!!!!!!!!!!!!!!!!!!!!!!!!!!!!!!!!!!!!!!!!!!!!!!!!!!!!!!!!!!!!!!!!!!!!!!!!!!!!!!!!!!!!!!!;..",
    " ..;!!!!!!!!!!!!!!!!!!!!!!!!!!!!!!!!!!!!!!!!!!!!!!!!!!!!!!!!!!!!!!!!!!!!!!!!!!!!!!!!!!!!!!!!!!!!!!!!!!!!!!!!!!!!!!!!!!!!!!!!!,..",
    " ..>!!!!!!!!!!!!!!!!!!!!!!!!!!!!!!!!!!!!!!!!!!!!!!!!!!!!!!!!!!!!!!!!!!!!!!!!!!!!!!!!!!!!!!!!!!!!!!!!!!!!!!!!!!!!!!!!!!!!!!!!!)..",
    " ..,!!!!!!!!!!!!!!!!!!!!!!!!!!!!!!!!!!!!!!!!!!!!!!!!!!!!!!!!!!!!!!!!!!!!!!!!!!!!!!!!!!!!!!!!!!!!!!!!!!!!!!!!!!!!!!!!!!!!!!!!!!..",
    " ..,!!!!!!!!!!!!!!!!!!!!!!!!!!!!!!!!!!!!!!!!!!!!!!!!!!!!!!!!!!!!!!!!!!!!!!!!!!!!!!!!!!!!!!!!!!!!!!!!!!!!!!!!!!!!!!!!!!!!!!!!!!..",
    " ..,!!!!!!!!!!!!!!!!!!!!!!!!!!!!!!!!!!!';*%%%%%%%%%%%%%%%%%%%%%%%&->)!!!!!!!!!!!!!!!!!!!!!!!!!!!!!!!!!!!!!!!!!!!!!!!!!!!!!!!!!..",
    " ..,!!!!!!!!!!!!!!!!!!!!!!!!!!!!!!!!!'%.............................+-!!!!!!!!!!!!!!!!!!!!!!!!!!!!!!!!!!!!!!!!!!!!!!!!!!!!!!!!..",
    " ..,!!!!!!!!!!!!!!!!!!!!!!!!!!!!!!!!;@................................$'!!!!!!!!!!!!!!!!!!!!!!!!!!!!!!!!!!!!!!!!!!!!!!!!!!!!!!..",
    " ..,!!!!!!!!!!!!!!!!!!!!!!!!!!!!!!!,+..................................%!!!!!!!!!!!!!!!!!!!!!!!!!!!!!!!!!!!!!!!!!!!!!!!!!!!!!!..",
    " ..,!!!!!!!!!!!!!!!!!!!!!!!!!!!!!!!$....................................;!!!!!!!!!!!!!!!!!!!!!!!!!!!!!!!!!!!!!!!!!!!!!!!!!!!!!..",
    " ..,!!!!!!!!!!!!!!!!!!!!!!!!!!!!!!;.....................................@!!!!!!!!!!)!!!!!!!!!!!!!!!!!!!!!!!!!!!!!!!!!!!!!!!!!!..",
    " ..,!!!!!!!!!!!!!!!!!!!!!!!!!!!!!!*.....@=>>>>>>>>>>>>>>>>>>>>>>>>&......,!!!!!!!)=+;!!!!!!!!!!!!!!!!!!!!!!!!!!!!!!!!!!!!!!!!!..",
    " ..,!!!!!!!!!!!!!!!!!!!!!!!!!!!!!!$.....;!!!!!!!!!!!!!!!!!!!!!!!!!!%.....;!!!!!!'#...;!!!!!!!!!!!!!!!!!!!!!!!!!!!!!!!!!!!!!!!!..",
    " ..,!!!!!!!!!!!!!!!!!!!!!!!!!!!!!!@....+!!!!!!!!!!!!!!!!!!!!!!!!!!!-.....*!!!!!!*.....;!!!!!!!!!!!!!!!!!!!!!!!!!!!!!!!!!!!!!!!..",
    " ..,!!!!!!!!!!!!!!!!!!!!!!!!!!!!!!+....+!!!!!!!!!!!!!!!!!!!!!!!!!!!;.....*!!!!!!)#.....;!!!!!!!!!!!!!!!!!!!!!!!!!!!!!!!!!!!!!!..",
    " ..,!!!!!!!!!!!!!!!!!!!!!!!!!!!!!!+....+!!!!!!!!!!!!!!!!!!!!!!!!!!!;.....*!!!!!!!'@.....;!!!!!!!!!!!!!!!!!!!!!!!!!!!!!!!!!!!!!..",
    " ..,!!!!!!!!!!!!!!!!!!!!!!!!!!!!!!+....+!!!!!!!!!!!!!!!!!!!!!!!!!!!;.....*!!!!!!!!>......;!!!!!!!!!!!!!!!!!!!!!!!!!!!!!!!!!!!!..",
    " ..,!!!!!!!!!!!!!!!!!!!!!!!!!!!!!!+....+!!!!!!!!!!!!!!!!!!!!!!!!!!!;.....*!!!!!!!!!-......;!!!!!!!!!!!!!!!!!!!!!!!!!!!!!!!!!!!..",
    " ..,!!!!!!!!!!!!!!!!!!!!!!!!!!!!!!+....+!!!!!!!!!!!!!!!!!!!!!!!!!!!;.....=!!!!!!!!!!=......;!!!!!!!!!!!!!!!!!!!!!!!!!!!!!!!!!!..",
    " ..,!!!!!!!!!!!!!!!!!!!!!!!!!!!!!!+....+!!!!!!!!!!!!!!!!!!!!!!!!!!!;.....=!!!!!!!!!!!=......;!!!!!!!!!!!!!!!!!!!!!!!!!!!!!!!!!..",
    " ..,!!!!!!!!!!!!!!!!!!!!!!!!!!!!!!+....+!!!!!!!!!!!!!!!!!!!!!!!!!!!;.....=!!!!!!!!!!!!*......;!!!!!!!!!!!!!!!!!!!!!!!!!!!!!!!!..",
    " ..,!!!!!!!!!!!!!!!!!!!!!!!!!!!!!!+....+!!!!!!!!!!!!!!!!!!!!!!!!!!!;.....=!!!!!!!!!!!!>.......;!!!!!!!!!!!!!!!!!!!!!!!!!!!!!!!..",
    " ..,!!!!!!!!!!!!!!!!!!!!!!!!!!!!!!+....+!!!!!!!!!!!!!!!!!!!!!!!!!!!;.....=!!!!!!!!!!!!>........-!!!!!!!!!!!!!!!!!!!!!!!!!!!!!!..",
    " ..,!!!!!!!!!!!!!!!!!!!!!!!!!!!!!!+....+!!!!!!!!!!!!!!!!!!!!!!!!!!!;.....=!!!!!!!!!!!!;.........-!!!!!!!!!!!!!!!!!!!!!!!!!!!!!..",
    " ..,!!!!!!!!!!!!!!!!!!!!!!!!!!!!!!+....+!!!!!!!!!!!!!!!!!!!!!!!!!!!;.....=!!!!!!!!!!!!;..........>!!!!!!!!!!!!!!!!!!!!!!!!!!!!..",
    " ..,!!!!!!!!!!!!!!!!!!!!!!!!!!!!!!+....+!!!!!!!!!!!!!!!!!!!!!!!!!!!;.....=!!!!!!!!!!!!;..........#)!!!!!!!!!!!!!!!!!!!!!!!!!!!..",
    " ..,!!!!!!!!!!!!!!!!!!!!!!!!!!!!!!+....+!!!!!!!!!!!!!!!!!!!!!!!!!!!;.....=!!!!!!!!!!!!;...........*!!!!!!!!!!!!!!!!!!!!!!!!!!!..",
    " ..,!!!!!!!!!!!!!!!!!!!!!!!!!!!!!!+....+!!!!!!!!!!!!!!!!!!!!!!!!!!!;.....=!!!!!!!!!!!!;...#';$.....,!!!!!!!!!!!!!!!!!!!!!!!!!!..",
    " ..,!!!!!!!!!!!!!!!!!!!!!!!!!!!!!!+....+!!!!!!!!!!!!!!!!!!!!!!!!!!!;.....=!!!!!!!!!!!!-...#!!)$....;!!!!!!!!!!!!!!!!!!!!!!!!!!..",
    " ..,!!!!!!!!!!!!!!!!!!!!!!!!!!!!!!+....+!!!!!!!!!!!!!!!!!!!!!!!!!!!;.....=!!!!!!!!!!!!-...#!!!-....*!!!!!!!!!!!!!!!!!!!!!!!!!!..",
    " ..,!!!!!!!!!!!!!!!!!!!!!!!!!!!!!!+....+!!!!!!!!!!!!!!!!!!!!!!!!!!!;.....=!!!!!!!!!!!!-...#!!!>....$!!!!!!!!!!!!!!!!!!!!!!!!!!..",
    " ..,!!!!!!!!!!!!!!!!!!!!!!!!!!!!!!+....+!!!!!!!!!!!!!!!!!!!!!!!!!!!;.....-!!!!!!!!!!!!-...#!!!,....@!!!!!!!!!!!!!!!!!!!!!!!!!!..",
    " ..,!!!!!!!!!!!!!!!!!!!!!!!!!!!!!!+....+!!!!!!!!!!!!!!!!!!!!!!!!!!!;.....-!!!!!!!!!!!!;...+)!!,....+!!!!!!!!!!!!!!!!!!!!!!!!!!..",
    " ..,!!!!!!!!!!!!!!!!!!!!!!!!!!!!!!+.....'!!!!!!!!!!!!!!!!!!!!!!!!!!*.....;!!!!!!!!!!!!'....=!!,....+!!!!!!!!!!!!!!!!!!!!!!!!!!..",
    " ..,!!!!!!!!!!!!!!!!!!!!!!!!!!!!!!+.....&)!!!!!!!!!!!!!!!!!!!!!!!!,@.....;!!!!!!!!!!!!!@...+;!,....+!!!!!!!!!!!!!!!!!!!!!!!!!!..",
    " ..,!!!!!!!!!!!!!!!!!!!!!!!!!!!!!!+......+$$$$$$$$$$$$$$$$$$$$$$$#.......>!!!!!!!!!!!!!>.....@%....+!!!!!!!!!!!!!!!!!!!!!!!!!!..",
    " ..,!!!!!!!!!!!!!!!!!!!!!!!!!!!!!!+......................................>!!!!!!!!!!!!!!&..........+!!!!!!!!!!!!!!!!!!!!!!!!!!..",
    " ..,!!!!!!!!!!!!!!!!!!!!!!!!!!!!!!+......................................>!!!!!!!!!!!!!!!=+........+!!!!!!!!!!!!!!!!!!!!!!!!!!..",
    " ..,!!!!!!!!!!!!!!!!!!!!!!!!!!!!!!+......................................,!!!!!!!!!!!!!!!!,*$@.....+!!!!!!!!!!!!!!!!!!!!!!!!!!..",
    " ..,!!!!!!!!!!!!!!!!!!!!!!!!!!!!!!+......................................'!!!!!!!!!!!!!!!!!!!!!*...+!!!!!!!!!!!!!!!!!!!!!!!!!!..",
    " ..,!!!!!!!!!!!!!!!!!!!!!!!!!!!!!!+......................................'!!!!!!!!!!!!!!!!!!!!!*...+!!!!!!!!!!!!!!!!!!!!!!!!!!..",
    " ..,!!!!!!!!!!!!!!!!!!!!!!!!!!!!!!+......................................)!!!!!!!!!!!!!!!!!!!!!&...+!!!!!!!!!!!!!!!!!!!!!!!!!!..",
    " ..,!!!!!!!!!!!!!!!!!!!!!!!!!!!!!!+......................................!!!!!!!!!!!!!!!!!!!!!!&...+!!!!!!!!!!!!!!!!!!!!!!!!!!..",
    " ..,!!!!!!!!!!!!!!!!!!!!!!!!!!!!!!+.....................................+!!!!!!!!!!!!!!!!!!!!!!%...+!!!!!!!!!!!!!!!!!!!!!!!!!!..",
    " ..,!!!!!!!!!!!!!!!!!!!!!!!!!!!!!!+......................................########%=>)!!!!!!!!!!%...+!!!!!!!!!!!!!!!!!!!!!!!!!!..",
    " ..,!!!!!!!!!!!!!!!!!!!!!!!!!!!!!!+.................................................#>!!!!!!!!!$...+!!!!!!!!!!!!!!!!!!!!!!!!!!..",
    " ..,!!!!!!!!!!!!!!!!!!!!!!!!!!!!!!+...................................................*!!!!!!!!$...+!!!!!!!!!!!!!!!!!!!!!!!!!!..",
    " ..,!!!!!!!!!!!!!!!!!!!!!!!!!!!!!!+....................................................;!!!!!!!$...+!!!!!!!!!!!!!!!!!!!!!!!!!!..",
    " ..,!!!!!!!!!!!!!!!!!!!!!!!!!!!!!!+....................................................+'!!!!!!#...+!!!!!!!!!!!!!!!!!!!!!!!!!!..",
    " ..,!!!!!!!!!!!!!!!!!!!!!!!!!!!!!!+......................................$=======%......*!!!!!!#...+!!!!!!!!!!!!!!!!!!!!!!!!!!..",
    " ..,!!!!!!!!!!!!!!!!!!!!!!!!!!!!!!+......................................*!!!!!!!!'#....$!!!!!!@...+!!!!!!!!!!!!!!!!!!!!!!!!!!..",
    " ..,!!!!!!!!!!!!!!!!!!!!!!!!!!!!!!+......................................*!!!!!!!!!;.....!!!!!!@...+!!!!!!!!!!!!!!!!!!!!!!!!!!..",
    " ..,!!!!!!!!!!!!!!!!!!!!!!!!!!!!!!+......................................*!!!!!!!!!!+....,!!!!!+...+!!!!!!!!!!!!!!!!!!!!!!!!!!..",
    " ..,!!!!!!!!!!!!!!!!!!!!!!!!!!!!!!+......................................*!!!!!!!!!!@....,!!!!!+...+!!!!!!!!!!!!!!!!!!!!!!!!!!..",
    " ..,!!!!!!!!!!!!!!!!!!!!!!!!!!!!!!+......................................*!!!!!!!!!!@....,!!!!!....+!!!!!!!!!!!!!!!!!!!!!!!!!!..",
    " ..,!!!!!!!!!!!!!!!!!!!!!!!!!!!!!!+......................................*!!!!!!!!!!@....,!!!!)....+!!!!!!!!!!!!!!!!!!!!!!!!!!..",
    " ..,!!!!!!!!!!!!!!!!!!!!!!!!!!!!!!+......................................*!!!!!!!!!!@....,!!!!)....+!!!!!!!!!!!!!!!!!!!!!!!!!!..",
    " ..,!!!!!!!!!!!!!!!!!!!!!!!!!!!!!!+......................................*!!!!!!!!!!@....,!!!!'....+!!!!!!!!!!!!!!!!!!!!!!!!!!..",
    " ..,!!!!!!!!!!!!!!!!!!!!!!!!!!!!!!+......................................*!!!!!!!!!!@....,!!!!'....+!!!!!!!!!!!!!!!!!!!!!!!!!!..",
    " ..,!!!!!!!!!!!!!!!!!!!!!!!!!!!!!!+......................................*!!!!!!!!!!@....,!!!!,....+!!!!!!!!!!!!!!!!!!!!!!!!!!..",
    " ..,!!!!!!!!!!!!!!!!!!!!!!!!!!!!!!+......................................*!!!!!!!!!!@....,!!!!'.....!!!!!!!!!!!!!!!!!!!!!!!!!!..",
    " ..,!!!!!!!!!!!!!!!!!!!!!!!!!!!!!!+......................................*!!!!!!!!!!@....,!!!!!.....'!!!!!!!!!!!!!!!!!!!!!!!!!..",
    " ..,!!!!!!!!!!!!!!!!!!!!!!!!!!!!!!+......................................*!!!!!!!!!!@....,!!!!!@....>!!!!!!!!!!!!!!!!!!!!!!!!!..",
    " ..,!!!!!!!!!!!!!!!!!!!!!!!!!!!!!!+......................................*!!!!!!!!!!@....,!!!!!$....;!!!!!!!!!!!!!!!!!!!!!!!!!..",
    " ..,!!!!!!!!!!!!!!!!!!!!!!!!!!!!!!+......................................*!!!!!!!!!!@....,!!!!!&....=!!!!!!!!!!!!!!!!!!!!!!!!!..",
    " ..,!!!!!!!!!!!!!!!!!!!!!!!!!!!!!!+......................................*!!!!!!!!!!@....,!!!!!*....&!!!!!!!!!!!!!!!!!!!!!!!!!..",
    " ..,!!!!!!!!!!!!!!!!!!!!!!!!!!!!!!+......................................*!!!!!!!!!!@....,!!!!!-....$!!!!!!!!!!!!!!!!!!!!!!!!!..",
    " ..,!!!!!!!!!!!!!!!!!!!!!!!!!!!!!!+......................................*!!!!!!!!!!@....,!!!!!>....+!!!!!!!!!!!!!!!!!!!!!!!!!..",
    " ..,!!!!!!!!!!!!!!!!!!!!!!!!!!!!!!+......................................*!!!!!!!!!!@....,!!!!!'.....'!!!!!!!!!!!!!!!!!!!!!!!!..",
    " ..,!!!!!!!!!!!!!!!!!!!!!!!!!!!!!!+......................................*!!!!!!!!!!@....,!!!!!!@....;!!!!!!!!!!!!!!!!!!!!!!!!..",
    " ..,!!!!!!!!!!!!!!!!!!!!!!!!!!!!!!+......................................*!!!!!!!!!!@....,!!!!!!%....=!!!!!!!!!!!!!!!!!!!!!!!!..",
    " ..,!!!!!!!!!!!!!!!!!!!!!!!!!!!!!!+......................................*!!!!!!!!!!@....,!!!!!!*....&!!!!!!!!!!!!!!!!!!!!!!!!..",
    " ..,!!!!!!!!!!!!!!!!!!!!!!!!!!!!!!+......................................*!!!!!!!!!!@....,!!!!!!;....#!!!!!!!!!!!!!!!!!!!!!!!!..",
    " ..,!!!!!!!!!!!!!!!!!!!!!!!!!!!!!!+......................................*!!!!!!!!!!@....,!!!!!!,.....)!!!!!!!!!!!!!!!!!!!!!!!..",
    " ..,!!!!!!!!!!!!!!!!!!!!!!!!!!!!!!+......................................*!!!!!!!!!!@....,!!!!!!!+....,!!!!!!!!!!!!!!!!!!!!!!!..",
    " ..,!!!!!!!!!!!!!!!!!!!!!!!!!!!!!!+......................................*!!!!!!!!!!@....,!!!!!!!$....;!!!!!!!!!!!!!!!!!!!!!!!..",
    " ..,!!!!!!!!!!!!!!!!!!!!!!!!!!!!!!+......................................*!!!!!!!!!!@....,!!!!!!!&....*!!!!!!!!!!!!!!!!!!!!!!!..",
    " ..,!!!!!!!!!!!!!!!!!!!!!!!!!!!!!!+......................................*!!!!!!!!!!@....,!!!!!!!-....%!!!!!!!!!!!!!!!!!!!!!!!..",
    " ..,!!!!!!!!!!!!!!!!!!!!!!!!!!!!!!+......................................*!!!!!!!!!!@....,!!!!!!!>....@!!!!!!!!!!!!!!!!!!!!!!!..",
    " ..,!!!!!!!!!!!!!!!!!!!!!!!!!!!!!!+......................................*!!!!!!!!!!@....,!!!!!!!).....)!!!!!!!!!!!!!!!!!!!!!!..",
    " ..,!!!!!!!!!!!!!!!!!!!!!!!!!!!!!!+......................................*!!!!!!!!!!@....,!!!!!!!!#....>!!!!!!!!!!!!!!!!!!!!!!..",
    " ..,!!!!!!!!!!!!!!!!!!!!!!!!!!!!!!+......................................*!!!!!!!!!!@....,!!!!!!!!%....-!!!!!!!!!!!!!!!!!!!!!!..",
    " ..,!!!!!!!!!!!!!!!!!!!!!!!!!!!!!!+......................................*!!!!!!!!!!@....,!!!!!!!!=....*!!!!!!!!!!!!!!!!!!!!!!..",
    " ..,!!!!!!!!!!!!!!!!!!!!!!!!!!!!!!+......................................*!!!!!!!!!!@....,!!!!!!!!>....$!!!!!!!!!!!!!!!!!!!!!!..",
    " ..,!!!!!!!!!!!!!!!!!!!!!!!!!!!!!!+......................................*!!!!!!!!!!@....,!!!!!!!!'....@!!!!!!!!!!!!!!!!!!!!!!..",
    " ..,!!!!!!!!!!!!!!!!!!!!!!!!!!!!!!+......................................*!!!!!!!!!!@....,!!!!!!!!!@....'!!!!!!!!!!!!!!!!!!!!!..",
    " ..,!!!!!!!!!!!!!!!!!!!!!!!!!!!!!!+......................................*!!!!!!!!!!@....,!!!!!!!!!$....>!!!!!!!!!!!!!!!!!!!!!..",
    " ..,!!!!!!!!!!!!!!!!!!!!!!!!!!!!!!+......................................*!!!!!!!!!!@....,!!!!!!!!!*....=!!!!!!!!!!!!!!!!!!!!!..",
    " ..,!!!!!!!!!!!!!!!!!!!!!!!!!!!!!!+......................................*!!!!!!!!!!@....'!!!!!!!!!;....&!!!!!!!!!!!!!!!!!!!!!..",
    " ..,!!!!!!!!!!!!!!!!!!!!!!!!!!!!!!+......................................*!!!!!!!!!!@....'!!!!!!!!!-....$!!!!!!!!!!!!!!!!!!!!!..",
    " ..,!!!!!!!!!!!!!!!!!!!!!!!!!!!!!!+......................................*!!!!!!!!!!$....>!!!!!!!!!&....#!!!!!!!!!!!!!!!!!!!!!..",
    " ..,!!!!!!!!!!!!!!!!!!!!!!!!!!!!!!+......................................*!!!!!!!!!!*....*!!!!!!!!'@....%!!!!!!!!!!!!!!!!!!!!!..",
    " ..,!!!!!!!!!!!!!!!!!!!!!!!!!!!!!!+......................................*!!!!!!!!!!;.....>!!!!!!!$.....-!!!!!!!!!!!!!!!!!!!!!..",
    " ..,!!!!!!!!!!!!!!!!!!!!!!!!!!!!!!+......................................*!!!!!!!!!!'+....+=!!!!>#.....+)!!!!!!!!!!!!!!!!!!!!!..",
    " ..,!!!!!!!!!!!!!!!!!!!!!!!!!!!!!!+......................................*!!!!!!!!!!!-......@$%#.......;!!!!!!!!!!!!!!!!!!!!!!..",
    " ..,!!!!!!!!!!!!!!!!!!!!!!!!!!!!!!+......................................*!!!!!!!!!!!!%...............=!!!!!!!!!!!!!!!!!!!!!!!..",
    " ..,!!!!!!!!!!!!!!!!!!!!!!!!!!!!!!+......................................*!!!!!!!!!!!!)#.............&!!!!!!!!!!!!!!!!!!!!!!!!..",
    " ..,!!!!!!!!!!!!!!!!!!!!!!!!!!!!!!+......................................*!!!!!!!!!!!!!!=..........#>!!!!!!!!!!!!!!!!!!!!!!!!!..",
    " ..,!!!!!!!!!!!!!!!!!!!!!!!!!!!!!!=**&&&&%%%%$$$$$####@@@@++.............*!!!!!!!!!!!!!!!,%@.....#-!!!!!!!!!!!!!!!!!!!!!!!!!!!..",
    " ..,!!!!!!!!!!!!!!!!!!!!!!!!!!!!!!!!!!!!!!!!!!!!!!!!!!!!!!!!!!!!)))''',,,'!!!!!!!!!!!!!!!!!!';;,!!!!!!!!!!!!!!!!!!!!!!!!!!!!!!..",
    " ..,!!!!!!!!!!!!!!!!!!!!!!!!!!!!!!!!!!!!!!!!!!!!!!!!!!!!!!!!!!!!!!!!!!!!!!!!!!!!!!!!!!!!!!!!!!!!!!!!!!!!!!!!!!!!!!!!!!!!!!!!!!..",
    " ..>!!!!!!!!!!!!!!!!!!!!!!!!!!!!!!!!!!!!!!!!!!!!!!!!!!!!!!!!!!!!!!!!!!!!!!!!!!!!!!!!!!!!!!!!!!!!!!!!!!!!!!!!!!!!!!!!!!!!!!!!!'..",
    " ..-!!!!!!!!!!!!!!!!!!!!!!!!!!!!!!!!!!!!!!!!!!!!!!!!!!!!!!!!!!!!!!!!!!!!!!!!!!!!!!!!!!!!!!!!!!!!!!!!!!!!!!!!!!!!!!!!!!!!!!!!!>..",
    " ..*!!!!!!!!!!!!!!!!!!!!!!!!!!!!!!!!!!!!!!!!!!!!!!!!!!!!!!!!!!!!!!!!!!!!!!!!!!!!!!!!!!!!!!!!!!!!!!!!!!!!!!!!!!!!!!!!!!!!!!!!!-..",
    " ..@!!!!!!!!!!!!!!!!!!!!!!!!!!!!!!!!!!!!!!!!!!!!!!!!!!!!!!!!!!!!!!!!!!!!!!!!!!!!!!!!!!!!!!!!!!!!!!!!!!!!!!!!!!!!!!!!!!!!!!!!!$..",
    " ...>!!!!!!!!!!!!!!!!!!!!!!!!!!!!!!!!!!!!!!!!!!!!!!!!!!!!!!!!!!!!!!!!!!!!!!!!!!!!!!!!!!!!!!!!!!!!!!!!!!!!!!!!!!!!!!!!!!!!!!!'...",
    "  ..#)!!!!!!!!!!!!!!!!!!!!!!!!!!!!!!!!!!!!!!!!!!!!!!!!!!!!!!!!!!!!!!!!!!!!!!!!!!!!!!!!!!!!!!!!!!!!!!!!!!!!!!!!!!!!!!!!!!!!!!$.. ",
    "  ...*!!!!!!!!!!!!!!!!!!!!!!!!!!!!!!!!!!!!!!!!!!!!!!!!!!!!!!!!!!!!!!!!!!!!!!!!!!!!!!!!!!!!!!!!!!!!!!!!!!!!!!!!!!!!!!!!!!!!!-... ",
    "   ...>!!!!!!!!!!!!!!!!!!!!!!!!!!!!!!!!!!!!!!!!!!!!!!!!!!!!!!!!!!!!!!!!!!!!!!!!!!!!!!!!!!!!!!!!!!!!!!!!!!!!!!!!!!!!!!!!!!!'+..  ",
    "    ..#,!!!!!!!!!!!!!!!!!!!!!!!!!!!!!!!!!!!!!!!!!!!!!!!!!!!!!!!!!!!!!!!!!!!!!!!!!!!!!!!!!!!!!!!!!!!!!!!!!!!!!!!!!!!!!!!!!'$...  ",
    "    ...+=!!!!!!!!!!!!!!!!!!!!!!!!!!!!!!!!!!!!!!!!!!!!!!!!!!!!!!!!!!!!!!!!!!!!!!!!!!!!!!!!!!!!!!!!!!!!!!!!!!!!!!!!!!!!!!!;@...   ",
    "     ....$,!!!!!!!!!!!!!!!!!!!!!!!!!!!!!!!!!!!!!!!!!!!!!!!!!!!!!!!!!!!!!!!!!!!!!!!!!!!!!!!!!!!!!!!!!!!!!!!!!!!!!!!!!!!'%....    ",
    "       ...+&;)!!!!!!!!!!!!!!!!!!!!!!!!!!!!!!!!!!!!!!!!!!!!!!!!!!!!!!!!!!!!!!!!!!!!!!!!!!!!!!!!!!!!!!!!!!!!!!!!!!!!!)>&@....     ",
    "        ......+###################################################################################################+......       ",
    "          .............................................................................................................         ",
    "             .......................................................................................................            "};
