/* XPM */
static char * small_gas_pump_icon1_xpm[] = {
"57 57 16 1",
" 	c #000100",
".	c #373730",
"+	c #363835",
"@	c #464845",
"#	c #494E45",
"$	c #696F65",
"%	c #647071",
"&	c #6D6F6C",
"*	c #86877E",
"=	c #868885",
"-	c #BDBFBC",
";	c #C0BFB6",
">	c #DEE0DD",
",	c #DEDFE9",
"'	c #E1E7DC",
")	c #DBE8E9",
"'''''''''''''''''''''''''''>'')''''''''''''''''''''''''''",
"'''''''''''''''''''''''''')''''''''''''''''''''''>''')'''",
"'''''''''''''''''''''''''''''>'''''''''''''''''''''>)''''",
"'''''''''''''''''''''''''''''''''''''''''''''''''''''''''",
"''''''''''''''''''''''''';===========================;'''",
"'''''''''''''''''''''''''=                           $'''",
"''''-'''''''''''''''''''>=                           #'''",
"'''$ $'''''''''''''''''''=                           @>''",
"''=+  +-'''''''''''''''''=                           @'''",
"''=    +-''''''''''''''''=   &;============*==--*    @)''",
"')'%     -'''''''''''''''=   ='''''''''''''''''')    @'''",
"''''=     ''>''''''''''''=   =''''))'''''''''''''    @)''",
"'''')@    %''''''''''''''=   =>'''''''''''''''''>    @'''",
"'''>'-+    -'''''''''''''=   ='''''''''''''''''''    @'''",
"''''''=    +''''''>''''''=   =)'''''''''''''''''>    @'''",
"''''''*    +-''''')''''''=   *'''''''''''''''''''    @'''",
"'')''';.    %'''''''')))'=   ='''''''''''''''''')    @'''",
"'''''';.    %)'''''''''''=   *''''''''''''''''''-    @'''",
"'''''';.     -'''''>'''''=   +@@#####@#@#@#@#@#@@    @'''",
"'''>'';.     =''''''''''';                           @'''",
"'''''';.     ='''''''''-#+                           @'''",
"'''>'';.     ='''''''=%+                             &'''",
"'>''''-+     =''''))=                                @'''",
"''''')-+     ='''')-+                                @'''",
")''''''@     ='''''#   @%+                           @'''",
"'''>'''-=*   =''''-+  @''-*.                       +==')'",
"'''''''''>   =')''=   ''''';                       &'''''",
"'''''''''-   *''''*  +''''';                       &'''''",
"'''>'''''+  %'')''%  +'''>';                      #''''''",
")''''''''+  %'''''%  +''''';                      #'''')'",
"'')''''',+  %'''>'%   ;''''-                      #''''''",
">'''''''=   ='''''-   ='''''                      #''''''",
"''''''''=   -''''';.  %'''''                      #''''''",
"''''''''=  +-''''';.  +)''''                      #''''''",
"''''>'''@  #))>'')'@  +-''''                      $''''''",
"''''')'-   %))'''''#   @''''                      =''''''",
"'''''''&   )'''''''-   &''''                      ='''>''",
">'''''-+  +'''''''''+  +->'>+                     ='')'''",
"),'''';.  $''''''''>+  +-'''@                     =''''''",
"))'''';.  ='''''''''+  +->''+                     =''''''",
"))''');.  '''''''>''#  +-)''#                     =''''''",
"))''''-+  ))'''''>''=  +-'''+                     -''''''",
"'''''';.  ''''''''')=  +-'''#                    +'''''''",
"'''''';.  '''''''>''*  +-'''$                    +'''>'''",
"''>''';.  ='''''''''@  +-'''=                    +'''''''",
"''''')'.  $'''''''''+  +-'''=                    +'''''''",
"'''''''%   -'''''''+   @'')'=                    +'''''''",
"'''''''-   +-'''''%    =''''=                    &>''''''",
"''''''''=   +@-'#+    &>''''*                    -'>'''''",
"''>''''''=     +      -'''''-.                   '''')'''",
"'''''''')'%         +''''''''&                   ''>'''''",
"'''''''''''=%+    @*'''''''''-===================''''''>'",
">'''''>')'''';&%%='''''''>''''))'''''''''''''''''''''''''",
"')'''''''')')'''''')'''''''''''''''''''''''''''''''''''''",
"'''''''''''''''''''''''''''''''''''''''''''''''''''''''''",
"'''''''''''''''''''''''''''''''''''''''''''''''''''''''''",
"'''''''''''''''''''''''''''''''''''''''''''''''''''''''''"};
